REM DIRINDEX 1\2,1\3
REM DIRNAME folder01,folder02,folder03
TITLE ""
FILE "CD2Track06.mp3" MP3
  TRACK 01 AUDIO
    TITLE "0:"
    INDEX 01 00:00:00
  TRACK 02 AUDIO
    TITLE "3:cjc102_2445"
    INDEX 01 00:00:25
  TRACK 03 AUDIO
    TITLE "0:"
    INDEX 01 00:01:19
  TRACK 04 AUDIO
    TITLE "2:cjc102_2446"
    INDEX 01 00:01:46
  TRACK 05 AUDIO
    TITLE "0:"
    INDEX 01 00:02:45
  TRACK 06 AUDIO
    TITLE "2:cjc102_2447"
    INDEX 01 00:03:14
  TRACK 07 AUDIO
    TITLE "0:"
    INDEX 01 00:04:13
  TRACK 08 AUDIO
    TITLE "3:cjc102_2448"
    INDEX 01 00:05:09
  TRACK 09 AUDIO
    TITLE "0:"
    INDEX 01 00:05:69
  TRACK 10 AUDIO
    TITLE "2:cjc102_2449"
    INDEX 01 00:06:22
  TRACK 11 AUDIO
    TITLE "0:"
    INDEX 01 00:07:13
  TRACK 12 AUDIO
    TITLE "2:cjc102_2450"
    INDEX 01 00:07:68
  TRACK 13 AUDIO
    TITLE "0:"
    INDEX 01 00:08:60
  TRACK 14 AUDIO
    TITLE "3:cjc102_2451"
    INDEX 01 00:09:73
  TRACK 15 AUDIO
    TITLE "0:"
    INDEX 01 00:10:72
  TRACK 16 AUDIO
    TITLE "2:cjc102_2452"
    INDEX 01 00:11:27
  TRACK 17 AUDIO
    TITLE "0:"
    INDEX 01 00:12:16
  TRACK 18 AUDIO
    TITLE "2:cjc102_2453"
    INDEX 01 00:13:00
  TRACK 19 AUDIO
    TITLE "0:"
    INDEX 01 00:14:00
  TRACK 20 AUDIO
    TITLE "3:cjc102_2454"
    INDEX 01 00:14:27
  TRACK 21 AUDIO
    TITLE "0:"
    INDEX 01 00:15:21
  TRACK 22 AUDIO
    TITLE "2:cjc102_2455"
    INDEX 01 00:15:68
  TRACK 23 AUDIO
    TITLE "0:"
    INDEX 01 00:16:63
  TRACK 24 AUDIO
    TITLE "2:cjc102_2456"
    INDEX 01 00:17:43
  TRACK 25 AUDIO
    TITLE "0:"
    INDEX 01 00:18:42
  TRACK 26 AUDIO
    TITLE "3:cjc102_2457"
    INDEX 01 00:18:68
  TRACK 27 AUDIO
    TITLE "0:"
    INDEX 01 00:19:46
  TRACK 28 AUDIO
    TITLE "2:cjc102_2458"
    INDEX 01 00:20:32
  TRACK 29 AUDIO
    TITLE "0:"
    INDEX 01 00:21:27
  TRACK 30 AUDIO
    TITLE "2:cjc102_2459"
    INDEX 01 00:22:09
  TRACK 31 AUDIO
    TITLE "0:"
    INDEX 01 00:23:12
  TRACK 32 AUDIO
    TITLE "3:cjc102_2460"
    INDEX 01 00:23:34
  TRACK 33 AUDIO
    TITLE "0:"
    INDEX 01 00:24:33
  TRACK 34 AUDIO
    TITLE "2:cjc102_2461"
    INDEX 01 00:25:23
  TRACK 35 AUDIO
    TITLE "0:"
    INDEX 01 00:26:28
  TRACK 36 AUDIO
    TITLE "2:cjc102_2462"
    INDEX 01 00:27:61
  TRACK 37 AUDIO
    TITLE "0:"
    INDEX 01 00:28:72
  TRACK 38 AUDIO
    TITLE "3:cjc102_2463"
    INDEX 01 00:30:10
  TRACK 39 AUDIO
    TITLE "0:"
    INDEX 01 00:31:04
  TRACK 40 AUDIO
    TITLE "2:cjc102_2464"
    INDEX 01 00:31:65
  TRACK 41 AUDIO
    TITLE "0:"
    INDEX 01 00:32:62
  TRACK 42 AUDIO
    TITLE "2:cjc102_2465"
    INDEX 01 00:33:48
  TRACK 43 AUDIO
    TITLE "0:"
    INDEX 01 00:34:45
  TRACK 44 AUDIO
    TITLE "3:cjc102_2466"
    INDEX 01 00:36:01
  TRACK 45 AUDIO
    TITLE "0:"
    INDEX 01 00:36:72
  TRACK 46 AUDIO
    TITLE "2:cjc102_2467"
    INDEX 01 00:37:14
  TRACK 47 AUDIO
    TITLE "0:"
    INDEX 01 00:38:18
  TRACK 48 AUDIO
    TITLE "2:cjc102_2468"
    INDEX 01 00:38:73
  TRACK 49 AUDIO
    TITLE "0:"
    INDEX 01 00:40:09
  TRACK 50 AUDIO
    TITLE "3:cjc102_2469"
    INDEX 01 00:40:36
  TRACK 51 AUDIO
    TITLE "0:"
    INDEX 01 00:41:28
  TRACK 52 AUDIO
    TITLE "2:cjc102_2470"
    INDEX 01 00:42:29
  TRACK 53 AUDIO
    TITLE "0:"
    INDEX 01 00:43:21
  TRACK 54 AUDIO
    TITLE "2:cjc102_2471"
    INDEX 01 00:44:03
  TRACK 55 AUDIO
    TITLE "0:"
    INDEX 01 00:45:04
  TRACK 56 AUDIO
    TITLE "3:cjc102_2472"
    INDEX 01 00:46:09
  TRACK 57 AUDIO
    TITLE "0:"
    INDEX 01 00:47:01
  TRACK 58 AUDIO
    TITLE "2:cjc102_2473"
    INDEX 01 00:47:46
  TRACK 59 AUDIO
    TITLE "0:"
    INDEX 01 00:48:40
  TRACK 60 AUDIO
    TITLE "2:cjc102_2474"
    INDEX 01 00:49:29
  TRACK 61 AUDIO
    TITLE "0:"
    INDEX 01 00:50:33
